<?xml version="1.0" encoding="utf-8"?>
<!-- Generator: Adobe Illustrator 16.0.4, SVG Export Plug-In . SVG Version: 6.00 Build 0)  -->
<!DOCTYPE svg PUBLIC "-//W3C//DTD SVG 1.1//EN" "http://www.w3.org/Graphics/SVG/1.1/DTD/svg11.dtd">
<svg version="1.1" id="logo" xmlns="http://www.w3.org/2000/svg" xmlns:xlink="http://www.w3.org/1999/xlink" x="0px" y="0px"
	 width="240px" height="50px" viewBox="0 0 240 50" enable-background="new 0 0 240 50" xml:space="preserve">
<g id="typo">
	<path fill="#55484E" d="M85.58,38.3c0-0.117,0.014-0.205,0.044-0.265l9.408-30.406c0.172-0.526,0.572-0.79,1.202-0.79
		c0.63,0,1.031,0.271,1.203,0.813l9.396,30.634c0,0,0.007,0.024,0.022,0.074c0.014,0.049,0.022,0.097,0.022,0.143
		c0,0.209-0.132,0.389-0.396,0.539c-0.264,0.15-0.558,0.226-0.88,0.226c-0.47,0-0.763-0.22-0.88-0.66l-2.156-6.996H89.886
		L87.752,38.6c-0.145,0.445-0.463,0.668-0.956,0.668c-0.319,0-0.602-0.088-0.848-0.264C85.703,38.827,85.58,38.593,85.58,38.3z
		 M90.502,29.588h11.447L96.24,10.79L90.502,29.588z"/>
	<path fill="#55484E" d="M107.668,19.468c0-0.293,0.122-0.535,0.366-0.726c0.244-0.19,0.524-0.286,0.841-0.286
		c0.459,0,0.746,0.176,0.861,0.528l6.05,16.632l6.05-16.368c0.205-0.528,0.498-0.792,0.88-0.792c0.293,0,0.579,0.096,0.858,0.286
		c0.278,0.191,0.418,0.418,0.418,0.682l-0.177,0.704l-6.97,18.833c-0.206,0.41-0.559,0.615-1.059,0.615s-0.839-0.205-1.014-0.615
		l-6.929-18.833C107.727,19.775,107.668,19.556,107.668,19.468z"/>
	<path fill="#55484E" d="M126.896,31.392v-5.235c0-2.171,0.791-4.034,2.376-5.589c1.584-1.554,3.49-2.332,5.72-2.332
		c2.159,0,4.025,0.763,5.601,2.288c1.575,1.526,2.363,3.417,2.363,5.676c0,0.793-0.096,1.43-0.285,1.914s-0.489,0.83-0.899,1.034
		c-0.409,0.206-0.782,0.33-1.118,0.374c-0.337,0.044-0.812,0.066-1.426,0.066h-10.176v1.848c0,1.848,0.66,3.33,1.98,4.444
		c1.32,1.115,3.021,1.672,5.104,1.672c1.054,0,1.946-0.146,2.679-0.44c0.731-0.293,1.288-0.586,1.669-0.88
		c0.381-0.293,0.674-0.439,0.879-0.439c0.258,0,0.487,0.117,0.689,0.352c0.2,0.235,0.302,0.47,0.302,0.704
		c0,0.558-0.606,1.144-1.817,1.76s-2.707,0.924-4.488,0.924c-2.699,0-4.898-0.748-6.6-2.244
		C127.746,35.792,126.896,33.827,126.896,31.392z M129.052,27.783h9.372c0.997,0,1.657-0.102,1.98-0.308
		c0.322-0.205,0.483-0.63,0.483-1.276c0-1.554-0.557-2.948-1.672-4.18s-2.522-1.848-4.224-1.848c-1.644,0-3.044,0.572-4.202,1.716
		c-1.159,1.144-1.738,2.508-1.738,4.092V27.783z"/>
	<path fill="#55484E" d="M147.531,38.3v-18.92c0-0.586,0.352-0.88,1.056-0.88c0.293,0,0.542,0.081,0.748,0.242
		c0.205,0.162,0.308,0.374,0.308,0.638v2.2c0.499-0.938,1.262-1.73,2.288-2.376c1.026-0.645,2.229-0.968,3.608-0.968
		c2.141,0,3.988,0.792,5.544,2.376c1.555,1.584,2.332,3.476,2.332,5.675V38.3c0,0.646-0.367,0.968-1.1,0.968
		c-0.704,0-1.057-0.322-1.057-0.968V26.287c0-1.554-0.587-2.948-1.76-4.18c-1.174-1.232-2.552-1.848-4.136-1.848
		c-1.496,0-2.816,0.55-3.96,1.65c-1.145,1.1-1.717,2.56-1.717,4.377V38.3c0,0.235-0.109,0.455-0.329,0.66
		c-0.221,0.205-0.478,0.308-0.771,0.308c-0.294,0-0.543-0.095-0.748-0.286C147.634,38.791,147.531,38.563,147.531,38.3z"/>
	<path fill="#55484E" d="M168.782,31.479V19.423c0-0.234,0.11-0.447,0.33-0.638c0.221-0.19,0.477-0.286,0.771-0.286
		c0.264,0,0.506,0.096,0.726,0.286c0.221,0.191,0.33,0.403,0.33,0.638v12.056c0,1.584,0.579,2.985,1.738,4.202
		c1.158,1.218,2.544,1.826,4.158,1.826c1.612,0,2.999-0.608,4.157-1.826c1.159-1.217,1.738-2.618,1.738-4.202v-12.1
		c0-0.234,0.11-0.44,0.33-0.616c0.22-0.176,0.477-0.264,0.771-0.264c0.292,0,0.542,0.088,0.748,0.264
		c0.204,0.176,0.308,0.381,0.308,0.616v12.1c0,2.171-0.792,4.056-2.376,5.654s-3.477,2.397-5.676,2.397
		c-2.2,0-4.093-0.806-5.677-2.42C169.574,35.499,168.782,33.621,168.782,31.479z"/>
	<path fill="#55484E" d="M189.683,31.392v-5.235c0-2.171,0.792-4.034,2.376-5.589c1.584-1.554,3.49-2.332,5.72-2.332
		c2.159,0,4.025,0.763,5.601,2.288c1.575,1.526,2.363,3.417,2.363,5.676c0,0.793-0.096,1.43-0.285,1.914s-0.489,0.83-0.899,1.034
		c-0.409,0.206-0.782,0.33-1.118,0.374c-0.337,0.044-0.812,0.066-1.426,0.066h-10.176v1.848c0,1.848,0.66,3.33,1.98,4.444
		c1.32,1.115,3.021,1.672,5.104,1.672c1.054,0,1.946-0.146,2.679-0.44c0.731-0.293,1.288-0.586,1.669-0.88
		c0.381-0.293,0.674-0.439,0.879-0.439c0.258,0,0.487,0.117,0.689,0.352c0.2,0.235,0.302,0.47,0.302,0.704
		c0,0.558-0.606,1.144-1.817,1.76s-2.707,0.924-4.488,0.924c-2.699,0-4.898-0.748-6.6-2.244
		C190.533,35.792,189.683,33.827,189.683,31.392z M191.838,27.783h9.372c0.997,0,1.657-0.102,1.98-0.308
		c0.322-0.205,0.483-0.63,0.483-1.276c0-1.554-0.557-2.948-1.672-4.18s-2.522-1.848-4.224-1.848c-1.644,0-3.044,0.572-4.202,1.716
		c-1.159,1.144-1.738,2.508-1.738,4.092V27.783z"/>
</g>
<g id="dots">
	<circle opacity="0.2" fill="#4C426E" cx="6.5" cy="7.5" r="3.5"/>
	<circle opacity="0.4" fill="#4C426E" cx="17.5" cy="7.5" r="3.5"/>
	<circle fill="#4C426E" cx="29.5" cy="7.5" r="3.5"/>
	<circle opacity="0.2" fill="#4C426E" cx="17.5" cy="18.5" r="3.5"/>
	<circle opacity="0.4" fill="#4C426E" cx="29.5" cy="18.5" r="3.5"/>
	<circle opacity="0.6" fill="#4C426E" cx="40.5" cy="18.5" r="3.5"/>
	<circle fill="#4C426E" cx="51.5" cy="18.5" r="3.5"/>
	<circle opacity="0.2" fill="#4C426E" cx="29.5" cy="30.5" r="3.5"/>
	<circle opacity="0.4" fill="#4C426E" cx="40.5" cy="30.5" r="3.5"/>
	<circle opacity="0.6" fill="#4C426E" cx="51.5" cy="30.5" r="3.5"/>
	<circle fill="#4C426E" cx="62.5" cy="30.5" r="3.5"/>
	<circle opacity="0.2" fill="#4C426E" cx="29.5" cy="41.5" r="3.5"/>
	<circle opacity="0.4" fill="#4C426E" cx="40.5" cy="41.5" r="3.5"/>
</g>
</svg>
